# Blender v2.93.4 OBJ File: 'Oxygen model.blend'
# www.blender.org
mtllib Oxygen model.mtl
o Sphere
v 0.000000 0.923880 0.117317
v 0.000000 0.707107 -0.207107
v 0.000000 0.382683 -0.423880
v 0.000000 -0.000000 -0.500000
v 0.000000 -0.382683 -0.423880
v 0.000000 -0.707107 -0.207107
v 0.000000 -0.923880 0.117317
v 0.270598 0.923880 0.229402
v 0.500000 0.707107 0.000000
v 0.653282 0.382683 -0.153281
v 0.707107 -0.000000 -0.207107
v 0.653282 -0.382683 -0.153282
v 0.500000 -0.707107 0.000000
v 0.270598 -0.923880 0.229402
v 0.382684 0.923880 0.500000
v 0.707107 0.707107 0.500000
v 0.923880 0.382683 0.500000
v 1.000000 -0.000000 0.500000
v 0.923880 -0.382683 0.500000
v 0.707107 -0.707107 0.500000
v 0.382684 -0.923880 0.500000
v 0.270598 0.923880 0.770598
v 0.500000 0.707107 1.000000
v 0.653282 0.382683 1.153282
v 0.707107 -0.000000 1.207107
v 0.653282 -0.382683 1.153282
v 0.500000 -0.707107 1.000000
v 0.270598 -0.923880 0.770598
v 0.000000 0.923880 0.882684
v 0.000000 0.707107 1.207107
v 0.000000 0.382683 1.423880
v 0.000000 -0.000000 1.500000
v 0.000000 -0.382683 1.423880
v 0.000000 -0.707107 1.207107
v 0.000000 -0.923880 0.882684
v -0.000000 1.000000 0.500000
v -0.270598 0.923880 0.770598
v -0.500000 0.707107 1.000000
v -0.653281 0.382683 1.153281
v -0.707107 -0.000000 1.207107
v -0.653282 -0.382683 1.153282
v -0.500000 -0.707107 1.000000
v -0.270598 -0.923880 0.770598
v -0.382684 0.923880 0.500000
v -0.707107 0.707107 0.500000
v -0.923879 0.382683 0.500000
v -1.000000 -0.000000 0.500000
v -0.923880 -0.382683 0.500000
v -0.707107 -0.707107 0.500000
v -0.382684 -0.923880 0.500000
v 0.000000 -1.000000 0.500000
v -0.270598 0.923880 0.229402
v -0.500000 0.707107 0.000000
v -0.653281 0.382683 -0.153281
v -0.707107 -0.000000 -0.207107
v -0.653282 -0.382683 -0.153281
v -0.500000 -0.707107 0.000000
v -0.270598 -0.923880 0.229402
v 0.000000 0.923880 -0.882684
v 0.000000 0.707107 -1.207107
v 0.000000 0.382683 -1.423880
v 0.000000 -0.000000 -1.500000
v 0.000000 -0.382683 -1.423880
v 0.000000 -0.707107 -1.207107
v 0.000000 -0.923880 -0.882684
v 0.270598 0.923880 -0.770598
v 0.500000 0.707107 -1.000000
v 0.653282 0.382683 -1.153281
v 0.707107 -0.000000 -1.207107
v 0.653282 -0.382683 -1.153281
v 0.500000 -0.707107 -1.000000
v 0.270598 -0.923880 -0.770598
v 0.382684 0.923880 -0.500000
v 0.707107 0.707107 -0.500000
v 0.923880 0.382683 -0.500000
v 1.000000 -0.000000 -0.500000
v 0.923880 -0.382683 -0.500000
v 0.707107 -0.707107 -0.500000
v 0.382684 -0.923880 -0.500000
v 0.270598 0.923880 -0.229402
v 0.500000 0.707107 0.000000
v 0.653282 0.382683 0.153282
v 0.707107 -0.000000 0.207107
v 0.653282 -0.382683 0.153282
v 0.500000 -0.707107 0.000000
v 0.270598 -0.923880 -0.229402
v 0.000000 0.923880 -0.117316
v 0.000000 0.707107 0.207107
v 0.000000 0.382683 0.423880
v 0.000000 -0.000000 0.500000
v 0.000000 -0.382683 0.423880
v 0.000000 -0.707107 0.207107
v 0.000000 -0.923880 -0.117316
v -0.000000 1.000000 -0.500000
v -0.270598 0.923880 -0.229402
v -0.500000 0.707107 0.000000
v -0.653281 0.382683 0.153282
v -0.707107 -0.000000 0.207107
v -0.653282 -0.382683 0.153282
v -0.500000 -0.707107 0.000000
v -0.270598 -0.923880 -0.229402
v -0.382684 0.923880 -0.500000
v -0.707107 0.707107 -0.500000
v -0.923879 0.382683 -0.500000
v -1.000000 -0.000000 -0.500000
v -0.923880 -0.382683 -0.500000
v -0.707107 -0.707107 -0.500000
v -0.382684 -0.923880 -0.500000
v 0.000000 -1.000000 -0.500000
v -0.270598 0.923880 -0.770598
v -0.500000 0.707107 -1.000000
v -0.653281 0.382683 -1.153281
v -0.707107 -0.000000 -1.207107
v -0.653282 -0.382683 -1.153281
v -0.500000 -0.707107 -1.000000
v -0.270598 -0.923880 -0.770598
vt 0.170323 0.496992
vt 0.256534 0.450915
vt 0.244085 0.499921
vt 0.048695 0.415397
vt 0.176208 0.386777
vt 0.102190 0.468322
vt 0.018568 0.262841
vt 0.128005 0.307106
vt 0.018568 0.343888
vt 0.052924 0.184971
vt 0.116242 0.129927
vt 0.106816 0.200928
vt 0.320724 0.481341
vt 0.210899 0.420461
vt 0.149016 0.349227
vt 0.113137 0.258846
vt 0.149362 0.189914
vt 0.287603 0.421353
vt 0.238974 0.340583
vt 0.261210 0.377728
vt 0.197991 0.270684
vt 0.218482 0.305634
vt 0.175755 0.233540
vt 0.323828 0.352422
vt 0.287949 0.262040
vt 0.226066 0.190806
vt 0.330149 0.410340
vt 0.308960 0.304161
vt 0.260756 0.224490
vt 0.180431 0.160353
vt 0.418397 0.348426
vt 0.384041 0.426296
vt 0.388270 0.195870
vt 0.418397 0.267380
vt 0.266642 0.114276
vt 0.334775 0.142946
vt 0.192880 0.111346
vt 0.388270 0.584603
vt 0.260756 0.613223
vt 0.334775 0.531678
vt 0.418397 0.737159
vt 0.308960 0.692894
vt 0.418397 0.656112
vt 0.384041 0.815029
vt 0.320723 0.870073
vt 0.330149 0.799072
vt 0.116241 0.518660
vt 0.192879 0.500079
vt 0.180431 0.549085
vt 0.226066 0.579539
vt 0.266642 0.503008
vt 0.287949 0.650773
vt 0.323828 0.741154
vt 0.149362 0.578647
vt 0.175755 0.622272
vt 0.218482 0.694366
vt 0.261210 0.766460
vt 0.197991 0.659417
vt 0.238974 0.729316
vt 0.287603 0.810086
vt 0.149016 0.737960
vt 0.210898 0.809194
vt 0.106816 0.589660
vt 0.128005 0.695839
vt 0.176208 0.775510
vt 0.256534 0.839647
vt 0.113137 0.647578
vt 0.052924 0.573704
vt 0.018568 0.732620
vt 0.170323 0.885724
vt 0.102190 0.857054
vt 0.244085 0.888654
vt 0.018568 0.651574
vt 0.048695 0.804130
vt 0.785462 0.499925
vt 0.753820 0.424164
vt 0.797331 0.453199
vt 0.599166 0.419335
vt 0.720745 0.392047
vt 0.650171 0.469796
vt 0.570442 0.273880
vt 0.674785 0.316085
vt 0.570442 0.351154
vt 0.603199 0.199635
vt 0.663569 0.147152
vt 0.654582 0.214848
vt 0.858533 0.482209
vt 0.715133 0.497132
vt 0.694818 0.356245
vt 0.660609 0.270070
vt 0.695148 0.204348
vt 0.826955 0.425014
vt 0.801790 0.383419
vt 0.761051 0.314681
vt 0.720312 0.245942
vt 0.780589 0.348003
vt 0.741513 0.281358
vt 0.861494 0.359291
vt 0.827284 0.273116
vt 0.768282 0.205198
vt 0.867520 0.414513
vt 0.847317 0.313276
vt 0.801357 0.237314
vt 0.724771 0.176162
vt 0.918903 0.429727
vt 0.922936 0.210026
vt 0.951660 0.278207
vt 0.806969 0.132229
vt 0.871931 0.159565
vt 0.736640 0.129436
vt 0.951660 0.355482
vt 0.922936 0.580665
vt 0.801357 0.607953
vt 0.871931 0.530204
vt 0.951660 0.726120
vt 0.847317 0.683915
vt 0.951660 0.648846
vt 0.918903 0.800365
vt 0.858533 0.852848
vt 0.867520 0.785152
vt 0.663569 0.517791
vt 0.736640 0.500075
vt 0.724771 0.546801
vt 0.768282 0.575837
vt 0.806969 0.502868
vt 0.827284 0.643755
vt 0.861493 0.729930
vt 0.695148 0.574986
vt 0.720312 0.616581
vt 0.761051 0.685319
vt 0.801790 0.754058
vt 0.741513 0.651997
vt 0.780589 0.718642
vt 0.826954 0.795652
vt 0.694818 0.726884
vt 0.753820 0.794802
vt 0.660609 0.640709
vt 0.654582 0.585487
vt 0.674785 0.686724
vt 0.720745 0.762686
vt 0.797331 0.823838
vt 0.603199 0.570274
vt 0.570442 0.721793
vt 0.715133 0.867771
vt 0.650171 0.840435
vt 0.785462 0.870564
vt 0.570442 0.644519
vt 0.599166 0.789974
vn 0.2243 -0.8103 -0.5414
vn 0.3764 -0.1807 -0.9087
vn 0.3256 0.5253 -0.7862
vn 0.0805 0.9776 -0.1945
vn 0.0805 -0.9776 -0.1945
vn 0.3256 -0.5253 -0.7862
vn 0.3764 0.1807 -0.9087
vn 0.2243 0.8103 -0.5414
vn 0.1945 0.9776 -0.0805
vn 0.1945 -0.9776 -0.0805
vn 0.7862 -0.5253 -0.3256
vn 0.9087 0.1807 -0.3764
vn 0.5414 0.8103 -0.2243
vn 0.5414 -0.8103 -0.2243
vn 0.9087 -0.1807 -0.3764
vn 0.7862 0.5253 -0.3256
vn 0.7862 -0.5253 0.3256
vn 0.9087 0.1807 0.3764
vn 0.5414 0.8103 0.2243
vn 0.5414 -0.8103 0.2243
vn 0.9087 -0.1807 0.3764
vn 0.7862 0.5253 0.3256
vn 0.1945 0.9776 0.0805
vn 0.1945 -0.9776 0.0805
vn 0.2243 -0.8103 0.5414
vn 0.3764 -0.1807 0.9087
vn 0.3256 0.5253 0.7862
vn 0.0805 0.9776 0.1945
vn 0.0805 -0.9776 0.1945
vn 0.3256 -0.5253 0.7862
vn 0.3764 0.1807 0.9087
vn 0.2243 0.8103 0.5414
vn -0.3764 -0.1807 0.9087
vn -0.3256 0.5253 0.7862
vn -0.0805 0.9776 0.1945
vn -0.0805 -0.9776 0.1945
vn -0.3256 -0.5253 0.7862
vn -0.3764 0.1807 0.9087
vn -0.2243 0.8103 0.5414
vn -0.2243 -0.8103 0.5414
vn -0.1945 -0.9776 0.0805
vn -0.7862 -0.5253 0.3256
vn -0.9087 0.1807 0.3764
vn -0.5414 0.8103 0.2243
vn -0.5414 -0.8103 0.2243
vn -0.9087 -0.1807 0.3764
vn -0.7862 0.5253 0.3256
vn -0.1945 0.9776 0.0805
vn -0.9087 0.1807 -0.3764
vn -0.5414 0.8103 -0.2243
vn -0.5414 -0.8103 -0.2243
vn -0.9087 -0.1807 -0.3764
vn -0.7862 0.5253 -0.3256
vn -0.1945 0.9776 -0.0805
vn -0.1945 -0.9776 -0.0805
vn -0.7862 -0.5253 -0.3256
vn -0.2243 -0.8103 -0.5414
vn -0.3764 -0.1807 -0.9087
vn -0.3256 0.5253 -0.7862
vn -0.0805 0.9776 -0.1945
vn -0.0805 -0.9776 -0.1945
vn -0.3256 -0.5253 -0.7862
vn -0.3764 0.1807 -0.9087
vn -0.2243 0.8103 -0.5414
usemtl Material.001
s off
f 6/1/1 14/2/1 7/3/1
f 4/4/2 12/5/2 5/6/2
f 2/7/3 10/8/3 3/9/3
f 1/10/4 36/11/4 8/12/4
f 51/13/5 7/3/5 14/2/5
f 5/6/6 13/14/6 6/1/6
f 3/9/7 11/15/7 4/4/7
f 1/10/8 9/16/8 2/7/8
f 8/12/9 36/11/9 15/17/9
f 51/13/10 14/2/10 21/18/10
f 13/14/11 19/19/11 20/20/11
f 11/15/12 17/21/12 18/22/12
f 9/16/13 15/17/13 16/23/13
f 13/14/14 21/18/14 14/2/14
f 11/15/15 19/19/15 12/5/15
f 9/16/16 17/21/16 10/8/16
f 19/19/17 27/24/17 20/20/17
f 17/21/18 25/25/18 18/22/18
f 15/17/19 23/26/19 16/23/19
f 21/18/20 27/24/20 28/27/20
f 18/22/21 26/28/21 19/19/21
f 16/23/22 24/29/22 17/21/22
f 15/17/23 36/11/23 22/30/23
f 51/13/24 21/18/24 28/27/24
f 28/27/25 34/31/25 35/32/25
f 26/28/26 32/33/26 33/34/26
f 24/29/27 30/35/27 31/36/27
f 22/30/28 36/11/28 29/37/28
f 51/13/29 28/27/29 35/32/29
f 26/28/30 34/31/30 27/24/30
f 24/29/31 32/33/31 25/25/31
f 22/30/32 30/35/32 23/26/32
f 32/38/33 41/39/33 33/40/33
f 30/41/34 39/42/34 31/43/34
f 29/44/35 36/45/35 37/46/35
f 51/47/36 35/48/36 43/49/36
f 33/40/37 42/50/37 34/51/37
f 32/38/38 39/42/38 40/52/38
f 29/44/39 38/53/39 30/41/39
f 35/48/40 42/50/40 43/49/40
f 51/47/41 43/49/41 50/54/41
f 41/39/42 49/55/42 42/50/42
f 39/42/43 47/56/43 40/52/43
f 37/46/44 45/57/44 38/53/44
f 42/50/45 50/54/45 43/49/45
f 41/39/46 47/56/46 48/58/46
f 38/53/47 46/59/47 39/42/47
f 37/46/48 36/45/48 44/60/48
f 46/59/49 55/61/49 47/56/49
f 44/60/50 53/62/50 45/57/50
f 49/55/51 58/63/51 50/54/51
f 47/56/52 56/64/52 48/58/52
f 45/57/53 54/65/53 46/59/53
f 44/60/54 36/45/54 52/66/54
f 51/47/55 50/54/55 58/63/55
f 48/58/56 57/67/56 49/55/56
f 57/67/57 7/68/57 58/63/57
f 55/61/58 5/69/58 56/64/58
f 54/65/59 2/70/59 3/71/59
f 52/66/60 36/45/60 1/72/60
f 51/47/61 58/63/61 7/68/61
f 56/64/62 6/73/62 57/67/62
f 55/61/63 3/71/63 4/74/63
f 53/62/64 1/72/64 2/70/64
f 65/75/1 71/76/1 72/77/1
f 62/78/2 70/79/2 63/80/2
f 60/81/3 68/82/3 61/83/3
f 59/84/4 94/85/4 66/86/4
f 109/87/5 65/75/5 72/77/5
f 63/80/6 71/76/6 64/88/6
f 61/83/7 69/89/7 62/78/7
f 59/84/8 67/90/8 60/81/8
f 66/86/9 94/85/9 73/91/9
f 109/87/10 72/77/10 79/92/10
f 70/79/11 78/93/11 71/76/11
f 68/82/12 76/94/12 69/89/12
f 66/86/13 74/95/13 67/90/13
f 72/77/14 78/93/14 79/92/14
f 70/79/15 76/94/15 77/96/15
f 67/90/16 75/97/16 68/82/16
f 77/96/17 85/98/17 78/93/17
f 75/97/18 83/99/18 76/94/18
f 73/91/19 81/100/19 74/95/19
f 79/92/20 85/98/20 86/101/20
f 76/94/21 84/102/21 77/96/21
f 74/95/22 82/103/22 75/97/22
f 73/91/23 94/85/23 80/104/23
f 109/87/24 79/92/24 86/101/24
f 85/98/25 93/105/25 86/101/25
f 84/102/26 90/106/26 91/107/26
f 82/103/27 88/108/27 89/109/27
f 80/104/28 94/85/28 87/110/28
f 109/87/29 86/101/29 93/105/29
f 84/102/30 92/111/30 85/98/30
f 82/103/31 90/106/31 83/99/31
f 80/104/32 88/108/32 81/100/32
f 90/112/33 99/113/33 91/114/33
f 88/115/34 97/116/34 89/117/34
f 87/118/35 94/119/35 95/120/35
f 109/121/36 93/122/36 101/123/36
f 91/114/37 100/124/37 92/125/37
f 90/112/38 97/116/38 98/126/38
f 87/118/39 96/127/39 88/115/39
f 93/122/40 100/124/40 101/123/40
f 109/121/41 101/123/41 108/128/41
f 99/113/42 107/129/42 100/124/42
f 97/116/43 105/130/43 98/126/43
f 95/120/44 103/131/44 96/127/44
f 101/123/45 107/129/45 108/128/45
f 99/113/46 105/130/46 106/132/46
f 96/127/47 104/133/47 97/116/47
f 95/120/48 94/119/48 102/134/48
f 104/133/49 113/135/49 105/130/49
f 102/134/50 111/136/50 103/131/50
f 108/128/51 115/137/51 116/138/51
f 105/130/52 114/139/52 106/132/52
f 104/133/53 111/136/53 112/140/53
f 102/134/54 94/119/54 110/141/54
f 109/121/55 108/128/55 116/138/55
f 106/132/56 115/137/56 107/129/56
f 115/137/57 65/142/57 116/138/57
f 113/135/58 63/143/58 114/139/58
f 112/140/59 60/144/59 61/145/59
f 110/141/60 94/119/60 59/146/60
f 109/121/61 116/138/61 65/142/61
f 114/139/62 64/147/62 115/137/62
f 113/135/63 61/145/63 62/148/63
f 111/136/64 59/146/64 60/144/64
f 6/1/1 13/14/1 14/2/1
f 4/4/2 11/15/2 12/5/2
f 2/7/3 9/16/3 10/8/3
f 5/6/6 12/5/6 13/14/6
f 3/9/7 10/8/7 11/15/7
f 1/10/8 8/12/8 9/16/8
f 13/14/11 12/5/11 19/19/11
f 11/15/12 10/8/12 17/21/12
f 9/16/13 8/12/13 15/17/13
f 13/14/14 20/20/14 21/18/14
f 11/15/15 18/22/15 19/19/15
f 9/16/16 16/23/16 17/21/16
f 19/19/17 26/28/17 27/24/17
f 17/21/18 24/29/18 25/25/18
f 15/17/19 22/30/19 23/26/19
f 21/18/20 20/20/20 27/24/20
f 18/22/21 25/25/21 26/28/21
f 16/23/22 23/26/22 24/29/22
f 28/27/25 27/24/25 34/31/25
f 26/28/26 25/25/26 32/33/26
f 24/29/27 23/26/27 30/35/27
f 26/28/30 33/34/30 34/31/30
f 24/29/31 31/36/31 32/33/31
f 22/30/32 29/37/32 30/35/32
f 32/38/33 40/52/33 41/39/33
f 30/41/34 38/53/34 39/42/34
f 33/40/37 41/39/37 42/50/37
f 32/38/38 31/43/38 39/42/38
f 29/44/39 37/46/39 38/53/39
f 35/48/40 34/51/40 42/50/40
f 41/39/42 48/58/42 49/55/42
f 39/42/43 46/59/43 47/56/43
f 37/46/44 44/60/44 45/57/44
f 42/50/45 49/55/45 50/54/45
f 41/39/46 40/52/46 47/56/46
f 38/53/47 45/57/47 46/59/47
f 46/59/49 54/65/49 55/61/49
f 44/60/50 52/66/50 53/62/50
f 49/55/51 57/67/51 58/63/51
f 47/56/52 55/61/52 56/64/52
f 45/57/53 53/62/53 54/65/53
f 48/58/56 56/64/56 57/67/56
f 57/67/57 6/73/57 7/68/57
f 55/61/58 4/74/58 5/69/58
f 54/65/59 53/62/59 2/70/59
f 56/64/62 5/69/62 6/73/62
f 55/61/63 54/65/63 3/71/63
f 53/62/64 52/66/64 1/72/64
f 65/75/1 64/88/1 71/76/1
f 62/78/2 69/89/2 70/79/2
f 60/81/3 67/90/3 68/82/3
f 63/80/6 70/79/6 71/76/6
f 61/83/7 68/82/7 69/89/7
f 59/84/8 66/86/8 67/90/8
f 70/79/11 77/96/11 78/93/11
f 68/82/12 75/97/12 76/94/12
f 66/86/13 73/91/13 74/95/13
f 72/77/14 71/76/14 78/93/14
f 70/79/15 69/89/15 76/94/15
f 67/90/16 74/95/16 75/97/16
f 77/96/17 84/102/17 85/98/17
f 75/97/18 82/103/18 83/99/18
f 73/91/19 80/104/19 81/100/19
f 79/92/20 78/93/20 85/98/20
f 76/94/21 83/99/21 84/102/21
f 74/95/22 81/100/22 82/103/22
f 85/98/25 92/111/25 93/105/25
f 84/102/26 83/99/26 90/106/26
f 82/103/27 81/100/27 88/108/27
f 84/102/30 91/107/30 92/111/30
f 82/103/31 89/109/31 90/106/31
f 80/104/32 87/110/32 88/108/32
f 90/112/33 98/126/33 99/113/33
f 88/115/34 96/127/34 97/116/34
f 91/114/37 99/113/37 100/124/37
f 90/112/38 89/117/38 97/116/38
f 87/118/39 95/120/39 96/127/39
f 93/122/40 92/125/40 100/124/40
f 99/113/42 106/132/42 107/129/42
f 97/116/43 104/133/43 105/130/43
f 95/120/44 102/134/44 103/131/44
f 101/123/45 100/124/45 107/129/45
f 99/113/46 98/126/46 105/130/46
f 96/127/47 103/131/47 104/133/47
f 104/133/49 112/140/49 113/135/49
f 102/134/50 110/141/50 111/136/50
f 108/128/51 107/129/51 115/137/51
f 105/130/52 113/135/52 114/139/52
f 104/133/53 103/131/53 111/136/53
f 106/132/56 114/139/56 115/137/56
f 115/137/57 64/147/57 65/142/57
f 113/135/58 62/148/58 63/143/58
f 112/140/59 111/136/59 60/144/59
f 114/139/62 63/143/62 64/147/62
f 113/135/63 112/140/63 61/145/63
f 111/136/64 110/141/64 59/146/64
